<?xml version="1.0" encoding="utf-8"?>
<!-- Generator: Adobe Illustrator 22.0.0, SVG Export Plug-In . SVG Version: 6.00 Build 0)  -->
<svg version="1.1" id="Layer_1" xmlns="http://www.w3.org/2000/svg" xmlns:xlink="http://www.w3.org/1999/xlink" x="0px" y="0px"
	 viewBox="0 0 496 496" style="enable-background:new 0 0 496 496;" xml:space="preserve">
<style type="text/css">
	.st0{fill:#3E4954;}
	.st1{fill:#00C3EB;}
</style>
<g>
	<path class="st0" d="M464,415.2v-264c0-22.1-17.9-40-40-40h-36.9l40-75.9L356.5,5L296,112.7V60.8l-40-60l-40,60v62l-33.7-73
		L121.9,9.5l-10.2,71l15.3,30.7H72c-22.1,0-40,17.9-40,40v264H0v40c0,22.1,17.9,40,40,40h416c22.1,0,40-17.9,40-40v-40H464z
		 M424,127.2c13.2,0,24,10.8,24,24v264h-24v-264h-57.9l12.6-24C378.7,127.2,424,127.2,424,127.2z M273.1,55.2H239l17-25.6
		L273.1,55.2z M216,161v30.2h16v-120h16v72h16v-72h16v120h16v-45.9l67.5-119.9l41.4,17.8l-76,144.3l14.2,7.5l14.6-27.7H408v248H304
		H192H88v-248h67.1l13.8,27.6l14.3-7.2L131,83.2l41-17.6L216,161z M208,431.2h80v16h-80V431.2z M159.3,53.7l-29.3,12.6l4.2-29.3
		L159.3,53.7z M48,151.2c0-13.2,10.8-24,24-24h63.1l12,24H72v264H48V151.2z M480,455.2c0,13.2-10.8,24-24,24H40
		c-13.2,0-24-10.8-24-24v-24h16h40h120v32h112v-32h120h40h16V455.2z"/>
	<rect x="248" y="159.2" class="st0" width="16" height="24"/>
</g>
<path class="st1" d="M360,207.2c0-13.3-10.7-24-24-24H160c-13.3,0-24,10.7-24,24c0,10.4,6.7,19.2,16,22.5v129.5
	c0,17.7,14.3,32,32,32h128c17.7,0,32-14.3,32-32V229.7C353.3,226.4,360,217.6,360,207.2z"/>
<g>
	<rect x="328" y="231.2" class="st0" width="16" height="16"/>
	<rect x="152" y="231.2" class="st0" width="160" height="16"/>
</g>
</svg>
