<?xml version="1.0" encoding="utf-8"?>
<!-- Generator: Adobe Illustrator 22.0.0, SVG Export Plug-In . SVG Version: 6.00 Build 0)  -->
<svg version="1.1" id="Layer_1" xmlns="http://www.w3.org/2000/svg" xmlns:xlink="http://www.w3.org/1999/xlink" x="0px" y="0px"
	 viewBox="0 0 496 496" style="enable-background:new 0 0 496 496;" xml:space="preserve">
<style type="text/css">
	.st0{fill:#FF5465;}
	.st1{fill:#3E4954;}
</style>
<g>
	<rect x="120" y="336" class="st0" width="256" height="152"/>
	<rect x="120" y="8" class="st0" width="256" height="152"/>
</g>
<g>
	<path class="st1" d="M16,368.2V111.8c0-8.7,7.1-15.8,15.8-15.8H120V80h-16V48h16V32H88v48H31.8C14.3,80,0,94.3,0,111.8v256.4
		C0,385.7,14.3,400,31.8,400H120v-16H31.8C23.1,384,16,376.9,16,368.2z"/>
	<path class="st1" d="M464.2,80H408V32h-32v16h16v32h-16v16h88.2c8.7,0,15.8,7.1,15.8,15.8v256.4c0,8.7-7.1,15.8-15.8,15.8H376v16
		h88.2c17.5,0,31.8-14.3,31.8-31.8V111.8C496,94.3,481.7,80,464.2,80z"/>
	<polygon class="st1" points="104,320 392,320 392,352 376,352 376,368 408,368 408,304 88,304 88,368 120,368 120,352 104,352 	"/>
	<path class="st1" d="M472,144c0-13.2-10.8-24-24-24s-24,10.8-24,24s10.8,24,24,24S472,157.2,472,144z M440,144c0-4.4,3.6-8,8-8
		s8,3.6,8,8s-3.6,8-8,8S440,148.4,440,144z"/>
	<rect x="144" y="448" class="st1" width="208" height="16"/>
	<rect x="144" y="416" class="st1" width="208" height="16"/>
	<rect x="144" y="384" class="st1" width="16" height="16"/>
	<rect x="176" y="384" class="st1" width="16" height="16"/>
	<rect x="208" y="384" class="st1" width="16" height="16"/>
	<rect x="96" y="184" class="st1" width="304" height="16"/>
</g>
</svg>
