<?xml version="1.0"?>
<svg xmlns="http://www.w3.org/2000/svg" id="outline" viewBox="0 0 512 512" width="512" height="512" style="fill:#ff88c3"><path d="M400,96v16.51782A64.10538,64.10538,0,0,0,344.51782,168H328v16h16.51782A64.10538,64.10538,0,0,0,400,239.48218V256h16V239.48218A64.10538,64.10538,0,0,0,471.48218,184H488V168H471.48218A64.10538,64.10538,0,0,0,416,112.51782V96Zm8,88a8,8,0,1,1,8-8A8.00917,8.00917,0,0,1,408,184Zm-8-55.32056v24.69678A24.11413,24.11413,0,0,0,385.37622,168H360.67944A48.106,48.106,0,0,1,400,128.67944ZM360.67944,184h24.69678A24.11413,24.11413,0,0,0,400,198.62378v24.69678A48.106,48.106,0,0,1,360.67944,184ZM416,223.32056V198.62378A24.11413,24.11413,0,0,0,430.62378,184h24.69678A48.106,48.106,0,0,1,416,223.32056ZM455.32056,168H430.62378A24.11413,24.11413,0,0,0,416,153.37622V128.67944A48.106,48.106,0,0,1,455.32056,168Z"/><path d="M480,376V280a8.00039,8.00039,0,0,0-8-8H344a8.00039,8.00039,0,0,0-8,8v96a8.00039,8.00039,0,0,0,8,8H472A8.00039,8.00039,0,0,0,480,376ZM352,288h16v80H352Zm32,0h16v80H384Zm32,0h16v80H416Zm48,80H448V288h16Z"/><rect x="352" y="400" width="16" height="16"/><rect x="384" y="400" width="16" height="16"/><rect x="416" y="400" width="16" height="16"/><rect x="448" y="400" width="16" height="16"/><path d="M104,376a87.59723,87.59723,0,0,0,55.981-20.15137,87.98966,87.98966,0,0,0,129.75488-115.873A87.97364,87.97364,0,0,0,159.981,124.15137,87.95649,87.95649,0,0,0,30.26416,239.97559,87.187,87.187,0,0,0,16,288,88.09957,88.09957,0,0,0,104,376ZM32,288a71.38355,71.38355,0,0,1,8.9126-34.71631A87.83981,87.83981,0,0,0,159.981,259.84863a87.89985,87.89985,0,0,0,13.50244,9.2085A72.00865,72.00865,0,1,1,32,288Zm256,0a71.99346,71.99346,0,0,1-116.60229,56.51416A87.601,87.601,0,0,0,192,288a88.734,88.734,0,0,0-.76587-11.5332,88.02623,88.02623,0,0,0,87.85327-23.18311A71.38355,71.38355,0,0,1,288,288Zm0-96a71.99346,71.99346,0,0,1-116.60229,56.51416,87.81317,87.81317,0,0,0,0-113.02832A71.99346,71.99346,0,0,1,288,192ZM104,120a72,72,0,1,1-72,72A72.08124,72.08124,0,0,1,104,120Z"/><rect x="80" y="400" width="24" height="16"/><rect x="216" y="400" width="24" height="16"/><rect x="120" y="400" width="80" height="16"/></svg>
