<svg height="512pt" viewBox="0 0 512 512" width="512pt" xmlns="http://www.w3.org/2000/svg" style="fill:#a0d468"><path d="m375 175c-8.574219 0-16.933594.921875-25 2.640625v-143.5l4.140625 4.140625c1.890625 1.890625 4.398437 2.929688 7.070313 2.929688 2.667968 0 5.1875-1.039063 7.070312-2.929688 3.898438-3.890625 3.898438-10.242188 0-14.140625 0 0-21.1875-21.1875-21.1875-21.1875-1.863281-1.863281-4.457031-2.953125-7.09375-2.953125h-330c-5.523438 0-10 4.476562-10 10v390c0 2.636719 1.085938 5.234375 2.953125 7.09375l28.257813 28.257812c1.890624 1.886719 4.398437 2.929688 7.070312 2.929688 2.679688 0 5.1875-1.042969 7.078125-2.929688 3.890625-3.890624 3.890625-10.242187 0-14.140624l-11.214844-11.210938h301.714844l25.351563 25.351562c1.890624 1.886719 4.398437 2.929688 7.070312 2.929688 2.679688 0 5.1875-1.042969 7.078125-2.929688 3.890625-3.890624 3.890625-10.242187 0-14.140624l-6.359375-6.359376c1.988281.097657 3.988281.148438 6 .148438 66.167969 0 120-53.832031 120-120s-53.832031-120-120-120zm-355-155h310v370h-310zm355 375c-8.632812 0-17.007812-1.105469-25-3.175781v-20.847657c7.871094 2.597657 16.269531 4.023438 25 4.023438 44.113281 0 80-35.886719 80-80 0-5.523438-4.476562-10-10-10s-10 4.476562-10 10c0 33.085938-26.914062 60-60 60-8.917969 0-17.386719-1.964844-25-5.472656v-151.347656c7.996094-2.066407 16.367188-3.179688 25-3.179688 55.140625 0 100 44.859375 100 100s-44.859375 100-100 100zm0 0"/><path d="m410 245c-5.523438 0-10 4.476562-10 10v10c0 5.523438 4.476562 10 10 10s10-4.476562 10-10v-10c0-5.523438-4.476562-10-10-10zm0 0"/><path d="m175 85c-66.167969 0-120 53.832031-120 120s53.832031 120 120 120 120-53.832031 120-120-53.832031-120-120-120zm0 220c-55.140625 0-100-44.859375-100-100s44.859375-100 100-100 100 44.859375 100 100-44.859375 100-100 100zm0 0"/><path d="m235 205c0 33.085938-26.914062 60-60 60s-60-26.914062-60-60c0-5.523438-4.476562-10-10-10s-10 4.476562-10 10c0 44.113281 35.886719 80 80 80s80-35.886719 80-80c0-5.523438-4.476562-10-10-10s-10 4.476562-10 10zm0 0"/><path d="m140 185c5.523438 0 10-4.476562 10-10v-10c0-5.523438-4.476562-10-10-10s-10 4.476562-10 10v10c0 5.523438 4.476562 10 10 10zm0 0"/><path d="m210 185c5.523438 0 10-4.476562 10-10v-10c0-5.523438-4.476562-10-10-10s-10 4.476562-10 10v10c0 5.523438 4.476562 10 10 10zm0 0"/><path d="m101.921875 477.78125c-1.882813-1.890625-4.402344-2.929688-7.070313-2.929688-2.671874 0-5.179687 1.039063-7.070312 2.929688-3.902344 3.898438-3.902344 10.238281 0 14.140625l17.148438 17.148437c1.890624 1.890626 4.398437 2.929688 7.070312 2.929688s5.179688-1.039062 7.070312-2.929688c1.890626-1.890624 2.929688-4.398437 2.929688-7.070312s-1.039062-5.179688-2.929688-7.070312zm0 0"/><path d="m66.570312 446.570312c-2.671874 0-5.179687 1.039063-7.070312 2.929688-3.902344 3.898438-3.902344 10.238281 0 14.140625 1.890625 1.890625 4.398438 2.929687 7.070312 2.929687 2.667969 0 5.179688-1.039062 7.070313-2.929687 1.886719-1.890625 2.929687-4.402344 2.929687-7.070313 0-2.671874-1.042968-5.179687-2.929687-7.070312-1.890625-1.890625-4.402344-2.929688-7.070313-2.929688zm0 0"/><path d="m396.570312 446.570312c-2.671874 0-5.179687 1.039063-7.070312 2.929688s-2.929688 4.398438-2.929688 7.070312c0 2.667969 1.039063 5.179688 2.929688 7.070313s4.398438 2.929687 7.070312 2.929687c2.667969 0 5.179688-1.039062 7.070313-2.929687 3.898437-3.902344 3.898437-10.242187 0-14.140625-1.890625-1.890625-4.402344-2.929688-7.070313-2.929688zm0 0"/><path d="m431.921875 477.78125c-1.882813-1.890625-4.402344-2.929688-7.070313-2.929688-2.671874 0-5.179687 1.039063-7.070312 2.929688s-2.929688 4.398438-2.929688 7.070312c0 2.667969 1.039063 5.179688 2.929688 7.070313l17.148438 17.148437c1.890624 1.890626 4.398437 2.929688 7.070312 2.929688s5.179688-1.039062 7.070312-2.929688c3.898438-3.898437 3.898438-10.242187 0-14.140624zm0 0"/><path d="m431.921875 116.070312c1.886719 1.878907 4.398437 2.917969 7.066406 2.917969 2.683594 0 5.191407-1.039062 7.082031-2.917969 1.878907-1.890624 2.929688-4.398437 2.929688-7.070312 0-2.679688-1.050781-5.191406-2.929688-7.078125l-21.21875-21.210937c-1.890624-1.890626-4.402343-2.929688-7.070312-2.929688-2.671875 0-5.179688 1.039062-7.070312 2.929688-1.890626 1.890624-2.929688 4.398437-2.929688 7.070312 0 2.667969 1.039062 5.179688 2.929688 7.070312zm0 0"/><path d="m467.277344 147.28125c2.671875 0 5.183594-1.042969 7.070312-2.929688 1.890625-1.890624 2.929688-4.402343 2.929688-7.070312 0-2.671875-1.039063-5.179688-2.929688-7.070312-1.886718-1.890626-4.398437-2.929688-7.070312-2.929688-2.667969 0-5.179688 1.039062-7.066406 2.929688-1.890626 1.890624-2.933594 4.398437-2.933594 7.070312 0 2.667969 1.042968 5.179688 2.933594 7.070312 1.886718 1.886719 4.398437 2.929688 7.066406 2.929688zm0 0"/><path d="m509.070312 164.929688-6.441406-6.441407c-1.878906-1.886719-4.398437-2.929687-7.070312-2.929687-2.667969 0-5.179688 1.042968-7.070313 2.929687-1.890625 1.890625-2.929687 4.402344-2.929687 7.070313 0 2.671875 1.039062 5.191406 2.929687 7.070312l6.441407 6.441406c1.890624 1.890626 4.398437 2.929688 7.070312 2.929688 2.667969 0 5.179688-1.039062 7.070312-2.929688 3.898438-3.898437 3.898438-10.242187 0-14.140624zm0 0"/><path d="m389.5 69.5c2.671875 0 5.179688-1.039062 7.070312-2.929688 1.890626-1.890624 2.929688-4.398437 2.929688-7.070312s-1.039062-5.191406-2.929688-7.070312c-1.890624-1.890626-4.398437-2.929688-7.070312-2.929688s-5.191406 1.039062-7.070312 2.929688c-1.890626 1.878906-2.929688 4.398437-2.929688 7.070312s1.039062 5.179688 2.929688 7.070312c1.878906 1.890626 4.398437 2.929688 7.070312 2.929688zm0 0"/></svg>